<svg width="740" height="60" viewBox="0 0 740 60" fill="none" xmlns="http://www.w3.org/2000/svg">
    <path d="M40.6836 44H17.5195C17.1549 44 16.8164 43.9349 16.5039 43.8047C16.1914 43.6745 15.918 43.4987 15.6836 43.2773C15.4622 43.043 15.2865 42.7695 15.1562 42.457C15.026 42.1445 14.9609 41.806 14.9609 41.4414V15.9922H20.0391V38.9219H40.6836V44ZM65.6445 37.0078C65.6445 37.7109 65.5208 38.4727 65.2734 39.293C65.026 40.1003 64.6224 40.8555 64.0625 41.5586C63.5156 42.2487 62.793 42.8281 61.8945 43.2969C61.0091 43.7656 59.9284 44 58.6523 44H49.4922C48.7891 44 48.0273 43.8763 47.207 43.6289C46.3997 43.3815 45.6445 42.9844 44.9414 42.4375C44.2513 41.8776 43.6719 41.1549 43.2031 40.2695C42.7344 39.3711 42.5 38.2839 42.5 37.0078C42.5 36.3047 42.6237 35.543 42.8711 34.7227C43.1185 33.9023 43.5156 33.1471 44.0625 32.457C44.6224 31.7539 45.3451 31.168 46.2305 30.6992C47.1289 30.2305 48.2161 29.9961 49.4922 29.9961H58.6523V34.8398H49.4922C48.8021 34.8398 48.2682 35.0547 47.8906 35.4844C47.513 35.901 47.3242 36.4219 47.3242 37.0469C47.3242 37.7109 47.5391 38.2318 47.9688 38.6094C48.4115 38.974 48.9323 39.1562 49.5312 39.1562H58.6523C59.3424 39.1562 59.8763 38.9479 60.2539 38.5312C60.6315 38.1146 60.8203 37.5938 60.8203 36.9688V29.8789C60.8203 29.2148 60.612 28.6875 60.1953 28.2969C59.7917 27.9062 59.2773 27.7109 58.6523 27.7109H47.5V22.8867H58.6523C59.3555 22.8867 60.1107 23.0104 60.918 23.2578C61.7383 23.5052 62.4935 23.9089 63.1836 24.4688C63.8867 25.0156 64.4727 25.7383 64.9414 26.6367C65.4102 27.5221 65.6445 28.6029 65.6445 29.8789V37.0078ZM93.0664 41.4414C93.0664 41.806 93.0013 42.1445 92.8711 42.457C92.7409 42.7695 92.5586 43.043 92.3242 43.2773C92.1029 43.4987 91.8359 43.6745 91.5234 43.8047C91.224 43.9349 90.8984 44 90.5469 44H79.0625C78.4375 44 77.7669 43.9284 77.0508 43.7852C76.3477 43.6419 75.651 43.4141 74.9609 43.1016C74.2708 42.776 73.6003 42.3724 72.9492 41.8906C72.3112 41.3958 71.7513 40.8034 71.2695 40.1133C70.7878 39.4102 70.3971 38.6029 70.0977 37.6914C69.8112 36.7799 69.668 35.7513 69.668 34.6055V22.8867H74.7461V34.6055C74.7461 35.2695 74.8568 35.8685 75.0781 36.4023C75.3125 36.9232 75.625 37.3724 76.0156 37.75C76.4062 38.1276 76.862 38.4206 77.3828 38.6289C77.9167 38.8242 78.4896 38.9219 79.1016 38.9219H87.9883V22.8867H93.0664V41.4414ZM121.23 44H116.152V32.2812C116.152 31.6172 116.035 31.0247 115.801 30.5039C115.579 29.9701 115.273 29.5143 114.883 29.1367C114.492 28.7591 114.03 28.4727 113.496 28.2773C112.975 28.069 112.409 27.9648 111.797 27.9648H102.91V44H97.832V25.4062C97.832 25.0547 97.8971 24.7292 98.0273 24.4297C98.1576 24.1172 98.3398 23.8503 98.5742 23.6289C98.8086 23.3945 99.082 23.2122 99.3945 23.082C99.707 22.9518 100.039 22.8867 100.391 22.8867H111.836C112.474 22.8867 113.145 22.9583 113.848 23.1016C114.564 23.2448 115.267 23.4792 115.957 23.8047C116.66 24.1172 117.324 24.5208 117.949 25.0156C118.587 25.4974 119.147 26.0898 119.629 26.793C120.124 27.4831 120.514 28.2839 120.801 29.1953C121.087 30.1068 121.23 31.1354 121.23 32.2812V44ZM146.133 44H132.363C131.66 44 130.892 43.8763 130.059 43.6289C129.225 43.3815 128.451 42.9779 127.734 42.418C127.031 41.8451 126.439 41.1094 125.957 40.2109C125.488 39.2995 125.254 38.1862 125.254 36.8711V29.9961C125.254 29.5143 125.306 29.0065 125.41 28.4727C125.527 27.9388 125.703 27.4115 125.938 26.8906C126.172 26.3568 126.471 25.849 126.836 25.3672C127.214 24.8854 127.663 24.4622 128.184 24.0977C128.717 23.7331 129.329 23.4401 130.02 23.2188C130.71 22.9974 131.491 22.8867 132.363 22.8867H146.133V27.9648H132.363C131.699 27.9648 131.191 28.1341 130.84 28.4727C130.501 28.8112 130.332 29.332 130.332 30.0352V36.8711C130.332 37.5352 130.508 38.043 130.859 38.3945C131.211 38.7461 131.725 38.9219 132.402 38.9219H146.133V44ZM173.809 44H168.73V29.9961C168.73 29.332 168.561 28.8307 168.223 28.4922C167.884 28.1406 167.376 27.9648 166.699 27.9648H157.539V22.8867H166.699C167.181 22.8867 167.689 22.9453 168.223 23.0625C168.757 23.1667 169.284 23.3359 169.805 23.5703C170.339 23.8047 170.846 24.1107 171.328 24.4883C171.81 24.8529 172.233 25.3021 172.598 25.8359C172.962 26.3568 173.255 26.9622 173.477 27.6523C173.698 28.3424 173.809 29.1237 173.809 29.9961V44ZM155.488 44H150.41V13.9609H155.488V44ZM214.746 46.0312C214.746 46.9036 214.635 47.6849 214.414 48.375C214.193 49.0781 213.9 49.6901 213.535 50.2109C213.171 50.7448 212.747 51.194 212.266 51.5586C211.784 51.9362 211.276 52.2422 210.742 52.4766C210.221 52.7109 209.694 52.8802 209.16 52.9844C208.626 53.1016 208.118 53.1602 207.637 53.1602H198.477V48.082H207.637C208.314 48.082 208.822 47.9062 209.16 47.5547C209.499 47.2031 209.668 46.6953 209.668 46.0312V22.8867H214.746V46.0312ZM207.637 44H198.477C197.747 44 196.966 43.8763 196.133 43.6289C195.312 43.3815 194.544 42.9779 193.828 42.418C193.112 41.8451 192.52 41.1094 192.051 40.2109C191.582 39.2995 191.348 38.1862 191.348 36.8711V22.8867H196.426V36.8711C196.426 37.5352 196.602 38.043 196.953 38.3945C197.305 38.7461 197.826 38.9219 198.516 38.9219H207.637V44ZM242.559 36.8711C242.559 37.7435 242.448 38.5312 242.227 39.2344C242.005 39.9245 241.712 40.5365 241.348 41.0703C240.983 41.5911 240.56 42.0404 240.078 42.418C239.596 42.7826 239.089 43.082 238.555 43.3164C238.034 43.5508 237.5 43.7266 236.953 43.8438C236.419 43.9479 235.911 44 235.43 44H226.27C225.566 44 224.798 43.8763 223.965 43.6289C223.132 43.3815 222.357 42.9779 221.641 42.418C220.938 41.8451 220.345 41.1094 219.863 40.2109C219.395 39.2995 219.16 38.1862 219.16 36.8711V29.9961C219.16 28.694 219.395 27.5938 219.863 26.6953C220.345 25.7839 220.938 25.0482 221.641 24.4883C222.357 23.9154 223.132 23.5052 223.965 23.2578C224.798 23.0104 225.566 22.8867 226.27 22.8867H235.43C236.732 22.8867 237.839 23.1211 238.75 23.5898C239.661 24.0586 240.397 24.651 240.957 25.3672C241.517 26.0703 241.921 26.8385 242.168 27.6719C242.428 28.5052 242.559 29.2799 242.559 29.9961V36.8711ZM237.48 30.0352C237.48 29.332 237.305 28.8112 236.953 28.4727C236.602 28.1341 236.094 27.9648 235.43 27.9648H226.309C225.632 27.9648 225.117 28.1406 224.766 28.4922C224.414 28.8307 224.238 29.332 224.238 29.9961V36.8711C224.238 37.5352 224.414 38.043 224.766 38.3945C225.117 38.7461 225.632 38.9219 226.309 38.9219H235.43C236.12 38.9219 236.634 38.7461 236.973 38.3945C237.311 38.043 237.48 37.5352 237.48 36.8711V30.0352ZM269.98 41.4414C269.98 41.806 269.915 42.1445 269.785 42.457C269.655 42.7695 269.473 43.043 269.238 43.2773C269.017 43.4987 268.75 43.6745 268.438 43.8047C268.138 43.9349 267.812 44 267.461 44H255.977C255.352 44 254.681 43.9284 253.965 43.7852C253.262 43.6419 252.565 43.4141 251.875 43.1016C251.185 42.776 250.514 42.3724 249.863 41.8906C249.225 41.3958 248.665 40.8034 248.184 40.1133C247.702 39.4102 247.311 38.6029 247.012 37.6914C246.725 36.7799 246.582 35.7513 246.582 34.6055V22.8867H251.66V34.6055C251.66 35.2695 251.771 35.8685 251.992 36.4023C252.227 36.9232 252.539 37.3724 252.93 37.75C253.32 38.1276 253.776 38.4206 254.297 38.6289C254.831 38.8242 255.404 38.9219 256.016 38.9219H264.902V22.8867H269.98V41.4414ZM293.223 27.9648H281.797C281.107 27.9648 280.586 28.1406 280.234 28.4922C279.883 28.8307 279.707 29.332 279.707 29.9961V44H274.629V29.9961C274.629 29.1237 274.74 28.3424 274.961 27.6523C275.182 26.9622 275.475 26.3568 275.84 25.8359C276.217 25.3021 276.647 24.8529 277.129 24.4883C277.611 24.1107 278.112 23.8047 278.633 23.5703C279.167 23.3359 279.701 23.1667 280.234 23.0625C280.781 22.9453 281.289 22.8867 281.758 22.8867H293.223V27.9648ZM328.164 27.9648H319.297V44H314.16V27.9648H307.559V22.8867H314.16V15.9922H319.297V22.8867H328.164V27.9648ZM354.395 36.8711C354.395 37.7435 354.284 38.5312 354.062 39.2344C353.841 39.9245 353.548 40.5365 353.184 41.0703C352.819 41.5911 352.396 42.0404 351.914 42.418C351.432 42.7826 350.924 43.082 350.391 43.3164C349.87 43.5508 349.336 43.7266 348.789 43.8438C348.255 43.9479 347.747 44 347.266 44H338.105C337.402 44 336.634 43.8763 335.801 43.6289C334.967 43.3815 334.193 42.9779 333.477 42.418C332.773 41.8451 332.181 41.1094 331.699 40.2109C331.23 39.2995 330.996 38.1862 330.996 36.8711V29.9961C330.996 28.694 331.23 27.5938 331.699 26.6953C332.181 25.7839 332.773 25.0482 333.477 24.4883C334.193 23.9154 334.967 23.5052 335.801 23.2578C336.634 23.0104 337.402 22.8867 338.105 22.8867H347.266C348.568 22.8867 349.674 23.1211 350.586 23.5898C351.497 24.0586 352.233 24.651 352.793 25.3672C353.353 26.0703 353.757 26.8385 354.004 27.6719C354.264 28.5052 354.395 29.2799 354.395 29.9961V36.8711ZM349.316 30.0352C349.316 29.332 349.141 28.8112 348.789 28.4727C348.438 28.1341 347.93 27.9648 347.266 27.9648H338.145C337.467 27.9648 336.953 28.1406 336.602 28.4922C336.25 28.8307 336.074 29.332 336.074 29.9961V36.8711C336.074 37.5352 336.25 38.043 336.602 38.3945C336.953 38.7461 337.467 38.9219 338.145 38.9219H347.266C347.956 38.9219 348.47 38.7461 348.809 38.3945C349.147 38.043 349.316 37.5352 349.316 36.8711V30.0352ZM383.535 44H376.211L365.977 34.1172C365.404 33.5964 365.137 32.9453 365.176 32.1641C365.202 31.7995 365.293 31.4609 365.449 31.1484C365.618 30.8229 365.846 30.5495 366.133 30.3281L375.41 22.8477H383.535L371.582 32.4766L383.535 44ZM363.887 44H358.809V13.9609H363.887V44ZM408.398 29.8789C408.398 30.582 408.275 31.3438 408.027 32.1641C407.78 32.9714 407.376 33.7266 406.816 34.4297C406.27 35.1198 405.547 35.6992 404.648 36.168C403.763 36.6367 402.682 36.8711 401.406 36.8711H392.246V32.0469H401.406C402.096 32.0469 402.63 31.8385 403.008 31.4219C403.385 30.9922 403.574 30.4648 403.574 29.8398C403.574 29.1758 403.359 28.6549 402.93 28.2773C402.513 27.8997 402.005 27.7109 401.406 27.7109H392.246C391.556 27.7109 391.022 27.9258 390.645 28.3555C390.267 28.7721 390.078 29.293 390.078 29.918V37.0078C390.078 37.6849 390.286 38.2122 390.703 38.5898C391.133 38.9674 391.66 39.1562 392.285 39.1562H401.406V44H392.246C391.543 44 390.781 43.8763 389.961 43.6289C389.154 43.3815 388.398 42.9844 387.695 42.4375C387.005 41.8776 386.426 41.1549 385.957 40.2695C385.488 39.3711 385.254 38.2839 385.254 37.0078V29.8789C385.254 29.1758 385.378 28.4206 385.625 27.6133C385.872 26.793 386.27 26.0378 386.816 25.3477C387.376 24.6445 388.099 24.0586 388.984 23.5898C389.883 23.1211 390.97 22.8867 392.246 22.8867H401.406C402.109 22.8867 402.865 23.0104 403.672 23.2578C404.492 23.5052 405.247 23.9089 405.938 24.4688C406.641 25.0156 407.227 25.7383 407.695 26.6367C408.164 27.5221 408.398 28.6029 408.398 29.8789ZM435.215 44H430.137V32.2812C430.137 31.6172 430.02 31.0247 429.785 30.5039C429.564 29.9701 429.258 29.5143 428.867 29.1367C428.477 28.7591 428.014 28.4727 427.48 28.2773C426.96 28.069 426.393 27.9648 425.781 27.9648H416.895V44H411.816V25.4062C411.816 25.0547 411.882 24.7292 412.012 24.4297C412.142 24.1172 412.324 23.8503 412.559 23.6289C412.793 23.3945 413.066 23.2122 413.379 23.082C413.691 22.9518 414.023 22.8867 414.375 22.8867H425.82C426.458 22.8867 427.129 22.9583 427.832 23.1016C428.548 23.2448 429.251 23.4792 429.941 23.8047C430.645 24.1172 431.309 24.5208 431.934 25.0156C432.572 25.4974 433.132 26.0898 433.613 26.793C434.108 27.4831 434.499 28.2839 434.785 29.1953C435.072 30.1068 435.215 31.1354 435.215 32.2812V44ZM475.645 36.8711C475.645 37.7435 475.534 38.5312 475.312 39.2344C475.091 39.9245 474.798 40.5365 474.434 41.0703C474.069 41.5911 473.646 42.0404 473.164 42.418C472.682 42.7826 472.174 43.082 471.641 43.3164C471.12 43.5508 470.586 43.7266 470.039 43.8438C469.505 43.9479 468.997 44 468.516 44H459.355C458.652 44 457.884 43.8763 457.051 43.6289C456.217 43.3815 455.443 42.9779 454.727 42.418C454.023 41.8451 453.431 41.1094 452.949 40.2109C452.48 39.2995 452.246 38.1862 452.246 36.8711V29.9961C452.246 28.694 452.48 27.5938 452.949 26.6953C453.431 25.7839 454.023 25.0482 454.727 24.4883C455.443 23.9154 456.217 23.5052 457.051 23.2578C457.884 23.0104 458.652 22.8867 459.355 22.8867H468.516C469.818 22.8867 470.924 23.1211 471.836 23.5898C472.747 24.0586 473.483 24.651 474.043 25.3672C474.603 26.0703 475.007 26.8385 475.254 27.6719C475.514 28.5052 475.645 29.2799 475.645 29.9961V36.8711ZM470.566 30.0352C470.566 29.332 470.391 28.8112 470.039 28.4727C469.688 28.1341 469.18 27.9648 468.516 27.9648H459.395C458.717 27.9648 458.203 28.1406 457.852 28.4922C457.5 28.8307 457.324 29.332 457.324 29.9961V36.8711C457.324 37.5352 457.5 38.043 457.852 38.3945C458.203 38.7461 458.717 38.9219 459.395 38.9219H468.516C469.206 38.9219 469.72 38.7461 470.059 38.3945C470.397 38.043 470.566 37.5352 470.566 36.8711V30.0352ZM503.379 44H498.301V32.2812C498.301 31.6172 498.184 31.0247 497.949 30.5039C497.728 29.9701 497.422 29.5143 497.031 29.1367C496.641 28.7591 496.178 28.4727 495.645 28.2773C495.124 28.069 494.557 27.9648 493.945 27.9648H485.059V44H479.98V25.4062C479.98 25.0547 480.046 24.7292 480.176 24.4297C480.306 24.1172 480.488 23.8503 480.723 23.6289C480.957 23.3945 481.23 23.2122 481.543 23.082C481.855 22.9518 482.188 22.8867 482.539 22.8867H493.984C494.622 22.8867 495.293 22.9583 495.996 23.1016C496.712 23.2448 497.415 23.4792 498.105 23.8047C498.809 24.1172 499.473 24.5208 500.098 25.0156C500.736 25.4974 501.296 26.0898 501.777 26.793C502.272 27.4831 502.663 28.2839 502.949 29.1953C503.236 30.1068 503.379 31.1354 503.379 32.2812V44ZM548.32 35.7578C548.32 36.7604 548.19 37.6654 547.93 38.4727C547.682 39.2669 547.35 39.9701 546.934 40.582C546.517 41.194 546.029 41.7148 545.469 42.1445C544.909 42.5742 544.329 42.9258 543.73 43.1992C543.132 43.4727 542.52 43.6745 541.895 43.8047C541.283 43.9349 540.703 44 540.156 44H520.566V38.9219H540.156C541.133 38.9219 541.888 38.6354 542.422 38.0625C542.969 37.4896 543.242 36.7214 543.242 35.7578C543.242 35.2891 543.171 34.8594 543.027 34.4688C542.884 34.0781 542.676 33.7396 542.402 33.4531C542.142 33.1667 541.816 32.9453 541.426 32.7891C541.048 32.6328 540.625 32.5547 540.156 32.5547H528.477C527.656 32.5547 526.771 32.4115 525.82 32.125C524.87 31.8255 523.984 31.3503 523.164 30.6992C522.357 30.0482 521.68 29.1953 521.133 28.1406C520.599 27.0859 520.332 25.7969 520.332 24.2734C520.332 22.75 520.599 21.4674 521.133 20.4258C521.68 19.3711 522.357 18.5182 523.164 17.8672C523.984 17.2031 524.87 16.7279 525.82 16.4414C526.771 16.1419 527.656 15.9922 528.477 15.9922H545.762V21.0703H528.477C527.513 21.0703 526.758 21.3633 526.211 21.9492C525.677 22.5352 525.41 23.3099 525.41 24.2734C525.41 25.25 525.677 26.0247 526.211 26.5977C526.758 27.1576 527.513 27.4375 528.477 27.4375H540.156H540.195C540.742 27.4505 541.322 27.5286 541.934 27.6719C542.546 27.8021 543.151 28.0104 543.75 28.2969C544.362 28.5833 544.941 28.9479 545.488 29.3906C546.035 29.8203 546.517 30.3411 546.934 30.9531C547.363 31.5651 547.702 32.2682 547.949 33.0625C548.197 33.8568 548.32 34.7552 548.32 35.7578ZM575.059 41.4414C575.059 41.806 574.993 42.1445 574.863 42.457C574.733 42.7695 574.551 43.043 574.316 43.2773C574.095 43.4987 573.828 43.6745 573.516 43.8047C573.216 43.9349 572.891 44 572.539 44H561.055C560.43 44 559.759 43.9284 559.043 43.7852C558.34 43.6419 557.643 43.4141 556.953 43.1016C556.263 42.776 555.592 42.3724 554.941 41.8906C554.303 41.3958 553.743 40.8034 553.262 40.1133C552.78 39.4102 552.389 38.6029 552.09 37.6914C551.803 36.7799 551.66 35.7513 551.66 34.6055V22.8867H556.738V34.6055C556.738 35.2695 556.849 35.8685 557.07 36.4023C557.305 36.9232 557.617 37.3724 558.008 37.75C558.398 38.1276 558.854 38.4206 559.375 38.6289C559.909 38.8242 560.482 38.9219 561.094 38.9219H569.98V22.8867H575.059V41.4414ZM603.223 44H598.145V32.2812C598.145 31.6172 598.027 31.0247 597.793 30.5039C597.572 29.9701 597.266 29.5143 596.875 29.1367C596.484 28.7591 596.022 28.4727 595.488 28.2773C594.967 28.069 594.401 27.9648 593.789 27.9648H584.902V44H579.824V25.4062C579.824 25.0547 579.889 24.7292 580.02 24.4297C580.15 24.1172 580.332 23.8503 580.566 23.6289C580.801 23.3945 581.074 23.2122 581.387 23.082C581.699 22.9518 582.031 22.8867 582.383 22.8867H593.828C594.466 22.8867 595.137 22.9583 595.84 23.1016C596.556 23.2448 597.259 23.4792 597.949 23.8047C598.652 24.1172 599.316 24.5208 599.941 25.0156C600.579 25.4974 601.139 26.0898 601.621 26.793C602.116 27.4831 602.507 28.2839 602.793 29.1953C603.079 30.1068 603.223 31.1354 603.223 32.2812V44ZM636.152 27.7109C636.152 28.8698 636.009 29.9049 635.723 30.8164C635.436 31.7279 635.046 32.5352 634.551 33.2383C634.069 33.9284 633.509 34.5208 632.871 35.0156C632.233 35.5104 631.562 35.9141 630.859 36.2266C630.169 36.5391 629.466 36.7669 628.75 36.9102C628.047 37.0534 627.383 37.125 626.758 37.125H615.273V32.0469H626.758C627.409 31.9948 627.995 31.8646 628.516 31.6562C629.049 31.4349 629.505 31.1419 629.883 30.7773C630.26 30.4128 630.553 29.9766 630.762 29.4688C630.97 28.9479 631.074 28.362 631.074 27.7109V25.4062C631.009 24.7682 630.872 24.1823 630.664 23.6484C630.456 23.1146 630.169 22.6589 629.805 22.2812C629.453 21.9036 629.023 21.6107 628.516 21.4023C628.008 21.181 627.422 21.0703 626.758 21.0703H615.312C614.635 21.0703 614.121 21.2461 613.77 21.5977C613.418 21.9492 613.242 22.457 613.242 23.1211V44H608.164V23.1211C608.164 21.819 608.398 20.7122 608.867 19.8008C609.349 18.8893 609.941 18.1536 610.645 17.5938C611.361 17.0339 612.135 16.6302 612.969 16.3828C613.802 16.1224 614.57 15.9922 615.273 15.9922H626.758C627.904 15.9922 628.932 16.1419 629.844 16.4414C630.755 16.7279 631.556 17.1185 632.246 17.6133C632.949 18.0951 633.542 18.6549 634.023 19.293C634.518 19.931 634.922 20.6016 635.234 21.3047C635.56 21.9948 635.794 22.6979 635.938 23.4141C636.081 24.1172 636.152 24.7812 636.152 25.4062V27.7109ZM663.027 41.4414C663.027 41.806 662.962 42.1445 662.832 42.457C662.702 42.7695 662.52 43.043 662.285 43.2773C662.064 43.4987 661.797 43.6745 661.484 43.8047C661.185 43.9349 660.859 44 660.508 44H649.023C648.398 44 647.728 43.9284 647.012 43.7852C646.309 43.6419 645.612 43.4141 644.922 43.1016C644.232 42.776 643.561 42.3724 642.91 41.8906C642.272 41.3958 641.712 40.8034 641.23 40.1133C640.749 39.4102 640.358 38.6029 640.059 37.6914C639.772 36.7799 639.629 35.7513 639.629 34.6055V22.8867H644.707V34.6055C644.707 35.2695 644.818 35.8685 645.039 36.4023C645.273 36.9232 645.586 37.3724 645.977 37.75C646.367 38.1276 646.823 38.4206 647.344 38.6289C647.878 38.8242 648.451 38.9219 649.062 38.9219H657.949V22.8867H663.027V41.4414ZM686.641 44H681.562V29.9961C681.562 29.332 681.387 28.8307 681.035 28.4922C680.684 28.1406 680.163 27.9648 679.473 27.9648H672.871V44H667.793V25.4062C667.793 25.0547 667.858 24.7292 667.988 24.4297C668.118 24.1172 668.301 23.8503 668.535 23.6289C668.77 23.3945 669.043 23.2122 669.355 23.082C669.668 22.9518 670 22.8867 670.352 22.8867H679.512C680.215 22.8867 680.97 23.0104 681.777 23.2578C682.585 23.5052 683.353 23.9023 684.082 24.4492V22.8867H690.957C691.439 22.8867 691.947 22.9453 692.48 23.0625C693.014 23.1667 693.542 23.3359 694.062 23.5703C694.596 23.8047 695.104 24.1107 695.586 24.4883C696.068 24.8529 696.491 25.3021 696.855 25.8359C697.22 26.3568 697.513 26.9622 697.734 27.6523C697.956 28.3424 698.066 29.1237 698.066 29.9961V44H692.988V29.9961C692.988 29.332 692.819 28.8307 692.48 28.4922C692.155 28.1406 691.647 27.9648 690.957 27.9648H686.387C686.556 28.5898 686.641 29.2669 686.641 29.9961V44ZM726.035 36.8711C726.035 37.7435 725.924 38.5312 725.703 39.2344C725.482 39.9245 725.189 40.5365 724.824 41.0703C724.46 41.5911 724.036 42.0404 723.555 42.418C723.073 42.7826 722.565 43.082 722.031 43.3164C721.51 43.5508 720.983 43.7266 720.449 43.8438C719.915 43.9479 719.408 44 718.926 44H709.766V38.9219H718.926C719.603 38.9219 720.111 38.7461 720.449 38.3945C720.788 38.043 720.957 37.5352 720.957 36.8711V30.0352C720.957 29.332 720.781 28.8112 720.43 28.4727C720.091 28.1341 719.59 27.9648 718.926 27.9648H709.805C709.115 27.9648 708.594 28.1406 708.242 28.4922C707.891 28.8307 707.715 29.332 707.715 29.9961V50.6016H702.637V29.9961C702.637 29.1237 702.747 28.3424 702.969 27.6523C703.19 26.9622 703.483 26.3568 703.848 25.8359C704.225 25.3021 704.655 24.8529 705.137 24.4883C705.618 24.1107 706.12 23.8047 706.641 23.5703C707.174 23.3359 707.708 23.1667 708.242 23.0625C708.789 22.9453 709.297 22.8867 709.766 22.8867H718.926C719.798 22.8867 720.579 22.9974 721.27 23.2188C721.96 23.4401 722.565 23.7331 723.086 24.0977C723.62 24.4622 724.069 24.8854 724.434 25.3672C724.811 25.849 725.117 26.3568 725.352 26.8906C725.586 27.4115 725.755 27.9388 725.859 28.4727C725.977 29.0065 726.035 29.5143 726.035 29.9961V36.8711Z" fill="url(#paint0_linear_381_107)"/>
    <defs>
        <linearGradient id="paint0_linear_381_107" x1="79.0053" y1="-15.7143" x2="797.821" y2="235.174" gradientUnits="userSpaceOnUse">
            <stop stop-color="white"/>
            <stop offset="0.884136" stop-color="#6001FF"/>
        </linearGradient>
    </defs>
</svg>
