<svg width="222" height="32" viewBox="0 0 222 32" fill="none" xmlns="http://www.w3.org/2000/svg">
    <circle cx="16" cy="16" r="16" fill="url(#paint0_linear_3195_3317)"/>
    <mask id="mask0_3195_3317" style="mask-type:luminance" maskUnits="userSpaceOnUse" x="0" y="0" width="32" height="32">
        <circle cx="16" cy="16" r="16" fill="white"/>
    </mask>
    <g mask="url(#mask0_3195_3317)">
        <path d="M15.6622 -3.81934V7.32909" stroke="white" stroke-width="0.789865"/>
        <path d="M14.0108 -3.81934V7.32909" stroke="white" stroke-width="0.789865"/>
        <path d="M17.8302 -3.81934V7.32909" stroke="white" stroke-width="0.789865"/>
        <path d="M8.67139 -1.64767L12.2862 5.09449V-2.58063" stroke="white" stroke-width="0.789865"/>
        <path d="M23.1245 -1.8541L19.5098 4.88807V-2.78705" stroke="white" stroke-width="0.789865"/>
        <path d="M16.2345 37.2645V26.1161" stroke="white" stroke-width="0.789865"/>
        <path d="M17.8863 37.2645V26.1161" stroke="white" stroke-width="0.789865"/>
        <path d="M14.067 37.2645V26.1161" stroke="white" stroke-width="0.789865"/>
        <path d="M23.3305 35.2325L19.7158 28.4904V36.1655" stroke="white" stroke-width="0.789865"/>
        <path d="M8.6709 35.3356L12.2857 28.5934V36.2686" stroke="white" stroke-width="0.789865"/>
        <path d="M-4.59326 17.0091H6.55513" stroke="white" stroke-width="0.789865"/>
        <path d="M-4.59326 18.6607H6.55513" stroke="white" stroke-width="0.789865"/>
        <path d="M-4.59326 14.8414H6.55513" stroke="white" stroke-width="0.789865"/>
        <path d="M-2.67984 24.0535L4.06233 20.4388H-3.61279" stroke="white" stroke-width="0.789865"/>
        <path d="M-1.95719 9.80652L4.78498 13.4212H-2.89014" stroke="white" stroke-width="0.789865"/>
        <path d="M36.4902 16.4364H25.3418" stroke="white" stroke-width="0.789865"/>
        <path d="M36.4902 14.7846H25.3418" stroke="white" stroke-width="0.789865"/>
        <path d="M36.4902 18.604H25.3418" stroke="white" stroke-width="0.789865"/>
        <path d="M34.2007 9.39368L27.4585 13.0085H35.1336" stroke="white" stroke-width="0.789865"/>
        <path d="M34.6132 23.9504L27.8711 20.3356H35.5462" stroke="white" stroke-width="0.789865"/>
        <path d="M1.62549 31.4504L9.5086 23.5673" stroke="white" stroke-width="0.789865"/>
        <path d="M2.79346 32.6181L10.6766 24.735" stroke="white" stroke-width="0.789865"/>
        <path d="M0.0922852 29.9176L7.97537 22.0345" stroke="white" stroke-width="0.789865"/>
        <path d="M8.37631 35.091L10.5878 27.7676L5.16064 33.1947" stroke="white" stroke-width="0.789865"/>
        <path d="M-2.33398 24.4834L4.98945 22.272L-0.437678 27.6992" stroke="white" stroke-width="0.789865"/>
        <path d="M30.2718 1.99457L22.3887 9.87769" stroke="white" stroke-width="0.789865"/>
        <path d="M29.1038 0.826782L21.2207 8.70991" stroke="white" stroke-width="0.789865"/>
        <path d="M31.8045 3.52747L23.9214 11.4106" stroke="white" stroke-width="0.789865"/>
        <path d="M23.7617 -1.40497L21.5503 5.91847L26.9774 0.491339" stroke="white" stroke-width="0.789865"/>
        <path d="M34.1627 8.78987L26.8394 11.0013L32.2665 5.57416" stroke="white" stroke-width="0.789865"/>
        <path d="M30.6756 31.0454L22.7925 23.1624" stroke="white" stroke-width="0.789865"/>
        <path d="M31.844 29.8777L23.9609 21.9946" stroke="white" stroke-width="0.789865"/>
        <path d="M29.1429 32.5783L21.2598 24.6953" stroke="white" stroke-width="0.789865"/>
        <path d="M34.3684 24.4836L27.0449 22.2721L32.4721 27.6992" stroke="white" stroke-width="0.789865"/>
        <path d="M23.8638 34.9879L21.6523 27.6645L27.0795 33.0916" stroke="white" stroke-width="0.789865"/>
        <path d="M1.22021 2.39972L9.10334 10.2828" stroke="white" stroke-width="0.789865"/>
        <path d="M0.0522461 3.56763L7.93535 11.4507" stroke="white" stroke-width="0.789865"/>
        <path d="M2.75342 0.866821L10.6365 8.74996" stroke="white" stroke-width="0.789865"/>
        <path d="M-1.81787 9.30597L5.50557 11.5174L0.0784397 6.09027" stroke="white" stroke-width="0.789865"/>
        <path d="M8.2733 -1.09521L10.4847 6.22823L5.05762 0.801098" stroke="white" stroke-width="0.789865"/>
    </g>
    <circle cx="15.949" cy="16.0515" r="10.9246" fill="#F8BA3A" stroke="white" stroke-width="0.677027"/>
    <mask id="mask1_3195_3317" style="mask-type:luminance" maskUnits="userSpaceOnUse" x="5" y="6" width="22" height="22">
        <circle cx="16.052" cy="16.9246" r="10.9246" fill="white"/>
    </mask>
    <g mask="url(#mask1_3195_3317)">
        <path fill-rule="evenodd" clip-rule="evenodd" d="M16.5682 5.51819L15.123 17.1311H16.5682L16.0005 27.8424L26.5327 25.9569L28.4437 11.2514L23.8019 7.1698L16.5682 5.51819Z" fill="white"/>
    </g>
    <path d="M5.83736 14.5978C6.086 16.6228 7.40333 18.7297 9.42779 18.4811C16.2988 17.6374 15.3334 13.2221 15.2408 11.7921C15.7381 15.8421 18.814 17.3286 23.9672 16.6958C25.5009 16.5075 26.1292 13.5101 25.9594 12.1271C25.7472 10.3984 21.1702 10.1457 15.4649 10.8462C9.75953 11.5467 5.52655 12.0665 5.83736 14.5978Z" fill="#01C1AE" stroke="#01C1AE" stroke-width="1.24122" stroke-linecap="round" stroke-linejoin="round"/>
    <path d="M16.1162 23.0002C18.51 22.805 20.3058 20.8724 20.1272 18.6838L11.4585 19.391C11.6371 21.5796 13.7224 23.1956 16.1162 23.0002Z" fill="white" stroke="#FE9D51" stroke-width="0.564189" stroke-linejoin="round"/>
    <path d="M17.2388 20.6451H19.613" stroke="#FE9A54" stroke-width="0.451351" stroke-linecap="round" stroke-linejoin="round"/>
    <path d="M18.5294 15.7418C16.6713 15.0399 15.9315 13.1784 15.7939 12.3354C15.7939 11.1999 17.0843 11.045 20.2326 11.045C23.381 11.045 25.2907 11.3031 25.4455 12.1289C25.6004 13.5741 25.0843 15.7418 24.3617 16.1031C23.6391 16.4644 20.852 16.6192 18.5294 15.7418Z" fill="black" stroke="black" stroke-width="0.112838"/>
    <path d="M13.064 16.7099C14.5551 15.7272 15.3293 13.8323 14.8648 12.2323C14.6002 11.321 13.1477 11.5445 10.4261 11.9742C8.00028 12.3572 6.14223 13.4193 6.34868 14.3484C6.45185 15.8706 7.62609 17.4782 8.30996 17.7548C8.99384 18.0315 11.2003 17.9383 13.064 16.7099Z" fill="black" stroke="black" stroke-width="0.112838"/>
    <path d="M25.9613 7.43219L26.8674 9.88097L29.3161 10.7871L26.8674 11.6932L25.9613 14.1419L25.0552 11.6932L22.6064 10.7871L25.0552 9.88097L25.9613 7.43219Z" fill="white"/>
    <path d="M59.918 19.0547C59.918 19.6562 59.8398 20.1992 59.6836 20.6836C59.5352 21.1602 59.3359 21.582 59.0859 21.9492C58.8359 22.3164 58.543 22.6289 58.207 22.8867C57.8711 23.1445 57.5234 23.3555 57.1641 23.5195C56.8047 23.6836 56.4375 23.8047 56.0625 23.8828C55.6953 23.9609 55.3477 24 55.0195 24H43.2656V20.9531H55.0195C55.6055 20.9531 56.0586 20.7812 56.3789 20.4375C56.707 20.0938 56.8711 19.6328 56.8711 19.0547C56.8711 18.7734 56.8281 18.5156 56.7422 18.2812C56.6562 18.0469 56.5312 17.8438 56.3672 17.6719C56.2109 17.5 56.0156 17.3672 55.7812 17.2734C55.5547 17.1797 55.3008 17.1328 55.0195 17.1328H48.0117C47.5195 17.1328 46.9883 17.0469 46.418 16.875C45.8477 16.6953 45.3164 16.4102 44.8242 16.0195C44.3398 15.6289 43.9336 15.1172 43.6055 14.4844C43.2852 13.8516 43.125 13.0781 43.125 12.1641C43.125 11.25 43.2852 10.4805 43.6055 9.85547C43.9336 9.22266 44.3398 8.71094 44.8242 8.32031C45.3164 7.92188 45.8477 7.63672 46.418 7.46484C46.9883 7.28516 47.5195 7.19531 48.0117 7.19531H58.3828V10.2422H48.0117C47.4336 10.2422 46.9805 10.418 46.6523 10.7695C46.332 11.1211 46.1719 11.5859 46.1719 12.1641C46.1719 12.75 46.332 13.2148 46.6523 13.5586C46.9805 13.8945 47.4336 14.0625 48.0117 14.0625H55.0195H55.043C55.3711 14.0703 55.7188 14.1172 56.0859 14.2031C56.4531 14.2812 56.8164 14.4062 57.1758 14.5781C57.543 14.75 57.8906 14.9688 58.2188 15.2344C58.5469 15.4922 58.8359 15.8047 59.0859 16.1719C59.3438 16.5391 59.5469 16.9609 59.6953 17.4375C59.8438 17.9141 59.918 18.4531 59.918 19.0547ZM75.2409 22.4648C75.2409 22.6836 75.2019 22.8867 75.1238 23.0742C75.0456 23.2617 74.9363 23.4258 74.7956 23.5664C74.6628 23.6992 74.5027 23.8047 74.3152 23.8828C74.1355 23.9609 73.9402 24 73.7292 24H66.8386C66.4636 24 66.0613 23.957 65.6316 23.8711C65.2097 23.7852 64.7917 23.6484 64.3777 23.4609C63.9636 23.2656 63.5613 23.0234 63.1706 22.7344C62.7878 22.4375 62.4519 22.082 62.1628 21.668C61.8738 21.2461 61.6394 20.7617 61.4597 20.2148C61.2878 19.668 61.2019 19.0508 61.2019 18.3633V11.332H64.2488V18.3633C64.2488 18.7617 64.3152 19.1211 64.448 19.4414C64.5886 19.7539 64.7761 20.0234 65.0105 20.25C65.2448 20.4766 65.5183 20.6523 65.8308 20.7773C66.1511 20.8945 66.4948 20.9531 66.862 20.9531H72.1941V11.332H75.2409V22.4648ZM91.4194 24H88.3725V16.9688C88.3725 16.5703 88.3022 16.2148 88.1616 15.9023C88.0288 15.582 87.8452 15.3086 87.6108 15.082C87.3764 14.8555 87.0991 14.6836 86.7788 14.5664C86.4663 14.4414 86.1264 14.3789 85.7592 14.3789H80.4272V24H77.3803V12.8438C77.3803 12.6328 77.4194 12.4375 77.4975 12.2578C77.5756 12.0703 77.685 11.9102 77.8256 11.7773C77.9663 11.6367 78.1303 11.5273 78.3178 11.4492C78.5053 11.3711 78.7045 11.332 78.9155 11.332H85.7827C86.1655 11.332 86.5678 11.375 86.9897 11.4609C87.4194 11.5469 87.8413 11.6875 88.2553 11.8828C88.6772 12.0703 89.0756 12.3125 89.4506 12.6094C89.8334 12.8984 90.1694 13.2539 90.4584 13.6758C90.7553 14.0898 90.9897 14.5703 91.1616 15.1172C91.3334 15.6641 91.4194 16.2812 91.4194 16.9688V24ZM110.457 14.2266C110.457 14.9219 110.371 15.543 110.199 16.0898C110.028 16.6367 109.793 17.1211 109.496 17.543C109.207 17.957 108.871 18.3125 108.488 18.6094C108.106 18.9062 107.703 19.1484 107.281 19.3359C106.867 19.5234 106.445 19.6602 106.016 19.7461C105.594 19.832 105.195 19.875 104.82 19.875H97.9298V16.8281H104.82C105.211 16.7969 105.563 16.7188 105.875 16.5938C106.195 16.4609 106.469 16.2852 106.695 16.0664C106.922 15.8477 107.098 15.5859 107.223 15.2812C107.348 14.9688 107.41 14.6172 107.41 14.2266V12.8438C107.371 12.4609 107.289 12.1094 107.164 11.7891C107.039 11.4688 106.867 11.1953 106.649 10.9688C106.438 10.7422 106.18 10.5664 105.875 10.4414C105.57 10.3086 105.219 10.2422 104.82 10.2422H97.9533C97.547 10.2422 97.2384 10.3477 97.0275 10.5586C96.8166 10.7695 96.7111 11.0742 96.7111 11.4727V24H93.6642V11.4727C93.6642 10.6914 93.8048 10.0273 94.0861 9.48047C94.3752 8.93359 94.7306 8.49219 95.1525 8.15625C95.5822 7.82031 96.047 7.57813 96.547 7.42969C97.047 7.27344 97.508 7.19531 97.9298 7.19531H104.82C105.508 7.19531 106.125 7.28516 106.672 7.46484C107.219 7.63672 107.699 7.87109 108.113 8.16797C108.535 8.45703 108.891 8.79297 109.18 9.17578C109.477 9.55859 109.719 9.96094 109.906 10.3828C110.102 10.7969 110.242 11.2188 110.328 11.6484C110.414 12.0703 110.457 12.4688 110.457 12.8438V14.2266ZM125.862 22.4648C125.862 22.6836 125.823 22.8867 125.745 23.0742C125.667 23.2617 125.558 23.4258 125.417 23.5664C125.284 23.6992 125.124 23.8047 124.936 23.8828C124.757 23.9609 124.561 24 124.35 24H117.46C117.085 24 116.683 23.957 116.253 23.8711C115.831 23.7852 115.413 23.6484 114.999 23.4609C114.585 23.2656 114.183 23.0234 113.792 22.7344C113.409 22.4375 113.073 22.082 112.784 21.668C112.495 21.2461 112.261 20.7617 112.081 20.2148C111.909 19.668 111.823 19.0508 111.823 18.3633V11.332H114.87V18.3633C114.87 18.7617 114.936 19.1211 115.069 19.4414C115.21 19.7539 115.397 20.0234 115.632 20.25C115.866 20.4766 116.14 20.6523 116.452 20.7773C116.772 20.8945 117.116 20.9531 117.483 20.9531H122.815V11.332H125.862V22.4648ZM139.31 24H136.263V15.5977C136.263 15.1992 136.158 14.8984 135.947 14.6953C135.736 14.4844 135.423 14.3789 135.009 14.3789H131.048V24H128.002V12.8438C128.002 12.6328 128.041 12.4375 128.119 12.2578C128.197 12.0703 128.306 11.9102 128.447 11.7773C128.588 11.6367 128.752 11.5273 128.939 11.4492C129.127 11.3711 129.326 11.332 129.537 11.332H135.033C135.455 11.332 135.908 11.4062 136.392 11.5547C136.877 11.7031 137.338 11.9414 137.775 12.2695V11.332H141.9C142.189 11.332 142.494 11.3672 142.814 11.4375C143.134 11.5 143.451 11.6016 143.763 11.7422C144.084 11.8828 144.388 12.0664 144.677 12.293C144.966 12.5117 145.22 12.7812 145.439 13.1016C145.658 13.4141 145.834 13.7773 145.966 14.1914C146.099 14.6055 146.166 15.0742 146.166 15.5977V24H143.119V15.5977C143.119 15.1992 143.017 14.8984 142.814 14.6953C142.619 14.4844 142.314 14.3789 141.9 14.3789H139.158C139.259 14.7539 139.31 15.1602 139.31 15.5977V24ZM162.227 19.7227C162.227 20.2461 162.16 20.7188 162.028 21.1406C161.895 21.5547 161.719 21.9219 161.5 22.2422C161.282 22.5547 161.028 22.8242 160.739 23.0508C160.45 23.2695 160.145 23.4492 159.825 23.5898C159.512 23.7305 159.196 23.8359 158.875 23.9062C158.555 23.9688 158.25 24 157.961 24H152.465V20.9531H157.961C158.368 20.9531 158.672 20.8477 158.875 20.6367C159.078 20.4258 159.18 20.1211 159.18 19.7227V15.6211C159.18 15.1992 159.075 14.8867 158.864 14.6836C158.66 14.4805 158.36 14.3789 157.961 14.3789H152.489C152.075 14.3789 151.762 14.4844 151.551 14.6953C151.34 14.8984 151.235 15.1992 151.235 15.5977V27.9609H148.188V15.5977C148.188 15.0742 148.254 14.6055 148.387 14.1914C148.52 13.7773 148.696 13.4141 148.914 13.1016C149.141 12.7812 149.399 12.5117 149.688 12.293C149.977 12.0664 150.278 11.8828 150.59 11.7422C150.91 11.6016 151.231 11.5 151.551 11.4375C151.879 11.3672 152.184 11.332 152.465 11.332H157.961C158.485 11.332 158.953 11.3984 159.368 11.5312C159.782 11.6641 160.145 11.8398 160.457 12.0586C160.778 12.2773 161.047 12.5312 161.266 12.8203C161.493 13.1094 161.676 13.4141 161.817 13.7344C161.957 14.0469 162.059 14.3633 162.121 14.6836C162.192 15.0039 162.227 15.3086 162.227 15.5977V19.7227Z" fill="white"/>
    <rect x="174" y="7" width="48" height="18" rx="4" fill="#1E183C"/>
    <path d="M185.686 11.432H189.61C190.462 11.432 191.134 11.636 191.614 12.044C192.058 12.428 192.286 12.944 192.286 13.592C192.286 14.072 192.166 14.48 191.938 14.816C191.71 15.128 191.386 15.356 190.954 15.524C191.518 15.632 191.938 15.86 192.226 16.208C192.502 16.544 192.646 17.012 192.646 17.588C192.646 18.452 192.346 19.088 191.758 19.496C191.254 19.832 190.534 20 189.622 20H185.686V11.432ZM187.09 12.584V15.032H189.238C189.838 15.032 190.258 14.924 190.51 14.732C190.75 14.528 190.882 14.204 190.882 13.76C190.882 13.352 190.75 13.052 190.51 12.872C190.246 12.68 189.838 12.584 189.262 12.584H187.09ZM187.09 16.184V18.848H189.418C189.946 18.848 190.366 18.764 190.666 18.596C191.05 18.38 191.242 18.044 191.242 17.564C191.242 17.072 191.098 16.724 190.822 16.508C190.534 16.292 190.078 16.184 189.454 16.184H187.09ZM196.491 13.628C197.511 13.628 198.291 13.964 198.831 14.66C199.323 15.284 199.575 16.16 199.575 17.276H194.931C194.979 17.852 195.135 18.296 195.399 18.596C195.663 18.896 196.047 19.052 196.539 19.052C196.959 19.052 197.295 18.956 197.559 18.764C197.763 18.608 197.943 18.356 198.111 18.008H199.479C199.335 18.584 199.047 19.076 198.615 19.46C198.063 19.928 197.379 20.168 196.551 20.168C195.627 20.168 194.895 19.88 194.355 19.316C193.779 18.728 193.491 17.924 193.491 16.892C193.491 15.968 193.755 15.2 194.307 14.576C194.835 13.94 195.567 13.628 196.491 13.628ZM196.527 14.744C196.071 14.744 195.723 14.864 195.459 15.128C195.207 15.38 195.039 15.752 194.955 16.244H198.147C198.027 15.236 197.487 14.744 196.527 14.744ZM202.603 11.792V13.796H203.983V14.924H202.603V18.428C202.603 18.572 202.627 18.68 202.699 18.764C202.771 18.836 202.867 18.872 203.011 18.872H203.827V20H202.783C202.243 20 201.847 19.856 201.595 19.568C201.355 19.304 201.235 18.932 201.235 18.428V14.924H200.119V13.796H201.235V12.356L202.603 11.792ZM207.827 13.628C208.739 13.628 209.423 13.856 209.855 14.312C210.239 14.708 210.431 15.284 210.431 16.04V20H209.159V19.184C208.919 19.496 208.619 19.724 208.271 19.892C207.875 20.072 207.407 20.168 206.867 20.168C206.219 20.168 205.715 20 205.343 19.676C204.959 19.34 204.767 18.92 204.767 18.404C204.767 17.708 205.031 17.168 205.583 16.796C206.087 16.436 206.795 16.244 207.707 16.22L209.063 16.184V15.944C209.063 15.128 208.619 14.732 207.731 14.732C207.347 14.732 207.047 14.792 206.819 14.936C206.555 15.092 206.375 15.332 206.303 15.656L204.947 15.548C205.079 14.864 205.415 14.36 205.955 14.048C206.411 13.76 207.035 13.628 207.827 13.628ZM209.063 17.168L207.803 17.204C206.711 17.228 206.171 17.612 206.171 18.356C206.171 18.572 206.255 18.752 206.447 18.896C206.639 19.04 206.879 19.124 207.179 19.124C207.707 19.124 208.151 18.968 208.511 18.668C208.871 18.356 209.063 17.96 209.063 17.48V17.168Z" fill="#B482FF"/>
    <defs>
        <linearGradient id="paint0_linear_3195_3317" x1="0" y1="0" x2="0" y2="32" gradientUnits="userSpaceOnUse">
            <stop stop-color="#F5B745"/>
            <stop offset="1" stop-color="#FC8B47"/>
        </linearGradient>
    </defs>
</svg>
