<svg width="289" height="49" viewBox="0 0 289 49" fill="none" xmlns="http://www.w3.org/2000/svg">
  <path d="M288.938 29.8559C288.938 31.0722 288.783 32.1706 288.473 33.1509C288.163 34.1131 287.753 34.9664 287.242 35.7107C286.732 36.4369 286.139 37.0633 285.465 37.5898C284.79 38.0981 284.079 38.5156 283.332 38.8424C282.603 39.1692 281.865 39.4143 281.117 39.5777C280.37 39.7229 279.659 39.7955 278.984 39.7955H266.16V32.7152H278.984C279.932 32.7152 280.643 32.4701 281.117 31.98C281.591 31.4898 281.828 30.7818 281.828 29.8559V20.3247C281.828 19.3443 281.582 18.6182 281.09 18.1461C280.616 17.6741 279.914 17.4381 278.984 17.4381H266.215C265.249 17.4381 264.52 17.6832 264.027 18.1734C263.535 18.6454 263.289 19.3443 263.289 20.2702V48.9999H256.18V20.2702C256.18 19.0539 256.335 17.9646 256.645 17.0024C256.954 16.0402 257.365 15.196 257.875 14.4698C258.404 13.7255 259.005 13.0991 259.68 12.5908C260.354 12.0643 261.056 11.6377 261.785 11.3109C262.533 10.9841 263.28 10.7481 264.027 10.6029C264.793 10.4395 265.504 10.3578 266.16 10.3578H278.984C280.206 10.3578 281.299 10.5121 282.266 10.8207C283.232 11.1294 284.079 11.5378 284.809 12.0462C285.556 12.5545 286.185 13.1445 286.695 13.8162C287.224 14.488 287.652 15.196 287.98 15.9403C288.309 16.6665 288.546 17.4018 288.691 18.1461C288.855 18.8905 288.938 19.5985 288.938 20.2702V29.8559Z" fill="url(#paint0_linear_2477_1606)"/>
  <path d="M233.785 39.7955H226.676V20.2702C226.676 19.3443 226.43 18.6454 225.938 18.1734C225.445 17.6832 224.716 17.4381 223.75 17.4381H214.508V39.7955H207.398V13.8707C207.398 13.3805 207.49 12.9267 207.672 12.5091C207.854 12.0734 208.109 11.7012 208.438 11.3926C208.766 11.0658 209.148 10.8117 209.586 10.6301C210.023 10.4486 210.488 10.3578 210.98 10.3578H223.805C224.789 10.3578 225.846 10.5303 226.977 10.8752C228.107 11.2201 229.182 11.7739 230.203 12.5363V10.3578H239.828C240.503 10.3578 241.214 10.4395 241.961 10.6029C242.708 10.7481 243.447 10.9841 244.176 11.3109C244.923 11.6377 245.634 12.0643 246.309 12.5908C246.983 13.0991 247.576 13.7255 248.086 14.4698C248.596 15.196 249.007 16.0402 249.316 17.0024C249.626 17.9646 249.781 19.0539 249.781 20.2702V39.7955H242.672V20.2702C242.672 19.3443 242.435 18.6454 241.961 18.1734C241.505 17.6832 240.794 17.4381 239.828 17.4381H233.43C233.667 18.3095 233.785 19.2536 233.785 20.2702V39.7955Z" fill="url(#paint1_linear_2477_1606)"/>
  <path d="M200.727 36.2282C200.727 36.7365 200.635 37.2085 200.453 37.6442C200.271 38.0799 200.016 38.4612 199.688 38.788C199.378 39.0966 199.004 39.3417 198.566 39.5232C198.147 39.7048 197.691 39.7955 197.199 39.7955H181.121C180.246 39.7955 179.307 39.6957 178.305 39.496C177.32 39.2963 176.345 38.9786 175.379 38.5429C174.413 38.089 173.474 37.5262 172.562 36.8545C171.669 36.1646 170.885 35.3386 170.211 34.3764C169.536 33.396 168.99 32.2704 168.57 30.9996C168.169 29.7288 167.969 28.2946 167.969 26.697V10.3578H175.078V26.697C175.078 27.6229 175.233 28.458 175.543 29.2023C175.871 29.9285 176.309 30.5548 176.855 31.0813C177.402 31.6078 178.04 32.0163 178.77 32.3068C179.517 32.5791 180.319 32.7152 181.176 32.7152H193.617V10.3578H200.727V36.2282Z" fill="url(#paint2_linear_2477_1606)"/>
  <path d="M163.102 17.0841C163.102 18.6999 162.901 20.1432 162.5 21.414C162.099 22.6848 161.552 23.8104 160.859 24.7908C160.185 25.753 159.401 26.579 158.508 27.2689C157.615 27.9587 156.676 28.5215 155.691 28.9573C154.725 29.393 153.741 29.7107 152.738 29.9104C151.754 30.1101 150.824 30.2099 149.949 30.2099H133.871V23.1296H149.949C150.861 23.057 151.681 22.8754 152.41 22.585C153.158 22.2763 153.796 21.8679 154.324 21.3595C154.853 20.8512 155.263 20.243 155.555 19.535C155.846 18.8088 155.992 17.9918 155.992 17.0841V13.8707C155.901 12.9812 155.71 12.1642 155.418 11.4199C155.126 10.6755 154.725 10.0401 154.215 9.51363C153.723 8.98714 153.121 8.57866 152.41 8.28819C151.699 7.97956 150.879 7.82525 149.949 7.82525H133.926C132.978 7.82525 132.258 8.07033 131.766 8.56051C131.273 9.05068 131.027 9.75871 131.027 10.6846V39.7956H123.918V10.6846C123.918 8.86914 124.246 7.32599 124.902 6.05517C125.577 4.78434 126.406 3.75861 127.391 2.97796C128.393 2.19731 129.478 1.63451 130.645 1.28957C131.811 0.926481 132.887 0.744934 133.871 0.744934H149.949C151.553 0.744934 152.993 0.953712 154.27 1.37127C155.546 1.77067 156.667 2.31531 157.633 3.00519C158.617 3.67691 159.447 4.45756 160.121 5.34714C160.814 6.23671 161.379 7.17168 161.816 8.15203C162.272 9.11423 162.6 10.0946 162.801 11.0931C163.001 12.0734 163.102 12.9993 163.102 13.8707V17.0841Z" fill="url(#paint3_linear_2477_1606)"/>
  <path d="M117 39.7955H109.891V23.4564C109.891 22.5305 109.727 21.7044 109.398 20.9783C109.089 20.2339 108.66 19.5985 108.113 19.072C107.566 18.5455 106.919 18.1461 106.172 17.8738C105.443 17.5833 104.65 17.4381 103.793 17.4381H91.3516V39.7955H84.2422V13.8707C84.2422 13.3805 84.3333 12.9267 84.5156 12.5091C84.6979 12.0734 84.9531 11.7012 85.2812 11.3926C85.6094 11.0658 85.9922 10.8117 86.4297 10.6301C86.8672 10.4486 87.332 10.3578 87.8242 10.3578H103.848C104.741 10.3578 105.68 10.4576 106.664 10.6573C107.667 10.857 108.651 11.1838 109.617 11.6377C110.602 12.0734 111.531 12.6362 112.406 13.3261C113.299 13.9978 114.083 14.8238 114.758 15.8042C115.451 16.7664 115.997 17.8829 116.398 19.1537C116.799 20.4245 117 21.8588 117 23.4564V39.7955Z" fill="url(#paint4_linear_2477_1606)"/>
  <path d="M77.5703 36.2282C77.5703 36.7365 77.4792 37.2085 77.2969 37.6442C77.1146 38.0799 76.8594 38.4612 76.5312 38.788C76.2214 39.0966 75.8477 39.3417 75.4102 39.5232C74.9909 39.7048 74.5352 39.7955 74.043 39.7955H57.9648C57.0898 39.7955 56.151 39.6957 55.1484 39.496C54.1641 39.2963 53.1888 38.9786 52.2227 38.5429C51.2565 38.089 50.3177 37.5262 49.4062 36.8545C48.513 36.1646 47.7292 35.3386 47.0547 34.3764C46.3802 33.396 45.8333 32.2704 45.4141 30.9996C45.013 29.7288 44.8125 28.2946 44.8125 26.697V10.3578H51.9219V26.697C51.9219 27.6229 52.0768 28.458 52.3867 29.2023C52.7148 29.9285 53.1523 30.5548 53.6992 31.0813C54.2461 31.6078 54.8841 32.0163 55.6133 32.3068C56.3607 32.5791 57.1628 32.7152 58.0195 32.7152H70.4609V10.3578H77.5703V36.2282Z" fill="url(#paint5_linear_2477_1606)"/>
  <path d="M40.1367 28.3037C40.1367 29.7016 39.9544 30.9633 39.5898 32.0889C39.2435 33.1964 38.7786 34.1767 38.1953 35.03C37.612 35.8832 36.9284 36.6094 36.1445 37.2085C35.3607 37.8076 34.5495 38.2978 33.7109 38.6791C32.8724 39.0603 32.0156 39.3417 31.1406 39.5233C30.2839 39.7048 29.4727 39.7956 28.707 39.7956H1.28125V32.7153H28.707C30.0742 32.7153 31.1315 32.3159 31.8789 31.5171C32.6445 30.7183 33.0273 29.6471 33.0273 28.3037C33.0273 27.6501 32.9271 27.051 32.7266 26.5064C32.526 25.9617 32.2344 25.4897 31.8516 25.0903C31.487 24.6909 31.0312 24.3823 30.4844 24.1644C29.9557 23.9466 29.3633 23.8376 28.707 23.8376H12.3555C11.207 23.8376 9.96745 23.6379 8.63672 23.2385C7.30599 22.821 6.06641 22.1583 4.91797 21.2506C3.78776 20.3429 2.83984 19.1537 2.07422 17.6832C1.32682 16.2127 0.953125 14.4154 0.953125 12.2913C0.953125 10.1672 1.32682 8.37896 2.07422 6.92659C2.83984 5.45606 3.78776 4.26694 4.91797 3.3592C6.06641 2.43332 7.30599 1.77067 8.63672 1.37127C9.96745 0.953712 11.207 0.744934 12.3555 0.744934H36.5547V7.82525H12.3555C11.0065 7.82525 9.94922 8.23373 9.18359 9.05068C8.4362 9.86764 8.0625 10.9478 8.0625 12.2913C8.0625 13.6529 8.4362 14.7331 9.18359 15.5319C9.94922 16.3125 11.0065 16.7029 12.3555 16.7029H28.707H28.7617C29.5273 16.721 30.3385 16.8299 31.1953 17.0296C32.0521 17.2112 32.8997 17.5017 33.7383 17.9011C34.5951 18.3005 35.4062 18.8088 36.1719 19.4261C36.9375 20.0252 37.612 20.7514 38.1953 21.6046C38.7969 22.4579 39.2708 23.4382 39.6172 24.5457C39.9635 25.6531 40.1367 26.9058 40.1367 28.3037Z" fill="url(#paint6_linear_2477_1606)"/>
  <defs>
    <linearGradient id="paint0_linear_2477_1606" x1="25.5134" y1="-44.2749" x2="353.208" y2="-10.8086" gradientUnits="userSpaceOnUse">
      <stop stop-color="white"/>
      <stop offset="0.884136" stop-color="#6001FF"/>
    </linearGradient>
    <linearGradient id="paint1_linear_2477_1606" x1="25.5134" y1="-44.2749" x2="353.208" y2="-10.8086" gradientUnits="userSpaceOnUse">
      <stop stop-color="white"/>
      <stop offset="0.884136" stop-color="#6001FF"/>
    </linearGradient>
    <linearGradient id="paint2_linear_2477_1606" x1="25.5134" y1="-44.2749" x2="353.208" y2="-10.8086" gradientUnits="userSpaceOnUse">
      <stop stop-color="white"/>
      <stop offset="0.884136" stop-color="#6001FF"/>
    </linearGradient>
    <linearGradient id="paint3_linear_2477_1606" x1="25.5134" y1="-44.2749" x2="353.208" y2="-10.8086" gradientUnits="userSpaceOnUse">
      <stop stop-color="white"/>
      <stop offset="0.884136" stop-color="#6001FF"/>
    </linearGradient>
    <linearGradient id="paint4_linear_2477_1606" x1="25.5134" y1="-44.275" x2="353.208" y2="-10.8087" gradientUnits="userSpaceOnUse">
      <stop stop-color="white"/>
      <stop offset="0.884136" stop-color="#6001FF"/>
    </linearGradient>
    <linearGradient id="paint5_linear_2477_1606" x1="25.5134" y1="-44.2751" x2="353.208" y2="-10.8088" gradientUnits="userSpaceOnUse">
      <stop stop-color="white"/>
      <stop offset="0.884136" stop-color="#6001FF"/>
    </linearGradient>
    <linearGradient id="paint6_linear_2477_1606" x1="25.5134" y1="-44.275" x2="353.208" y2="-10.8087" gradientUnits="userSpaceOnUse">
      <stop stop-color="white"/>
      <stop offset="0.884136" stop-color="#6001FF"/>
    </linearGradient>
  </defs>
</svg>
